<svg xmlns="http://www.w3.org/2000/svg">
<!-- inScript Default Icon Set -->

<!-- Top Bar -->
<symbol id="about-icon" viewBox="0 0 143 143"><path fill="#666" d="M79.162 18c6.696 0 10.043 4.567 10.043 9.79 0 6.52-5.814 12.554-13.39 12.554-6.345 0-10.046-3.752-9.87-9.947C65.945 25.177 70.35 18 79.162 18zm-20.62 100c-5.286 0-9.163-3.262-5.462-17.615l6.07-25.457c1.057-4.077 1.23-5.707 0-5.707-1.588 0-8.45 2.818-12.51 5.59L44 70.408C56.863 59.48 71.662 53.072 78.004 53.072c5.285 0 6.168 6.36 3.525 16.148l-6.95 26.76c-1.235 4.73-.704 6.36.526 6.36 1.586 0 6.787-1.964 11.896-6.042l2.998 4.08C77.488 113.1 63.83 118 58.543 118z" /><circle fill="none" stroke="#ccc" cx="70.5" cy="70.5" r="70.5"/></symbol>
<symbol id="arrow-left" viewBox="0 0 48 48"><path d="M43,22H8.82812l10.58594-10.58594l-2.82812-2.82812l-14,14c-0.78097,0.78097-0.78097,2.04716,0,2.82812 l14,14l2.82812-2.82812L8.82812,26H43c0.55228,0,1-0.44772,1-1v-2C44,22.44772,43.55228,22,43,22z"/></symbol>
<symbol id="arrow-right" viewBox="0 0 48 48"><path d="M31.41406,8.58594l-2.82812,2.82812L39.17188,22H5c-0.55228,0-1,0.44772-1,1v2c0,0.55228,0.44772,1,1,1 h34.17188L28.58594,36.58594l2.82812,2.82812l14-14c0.78096-0.78097,0.78096-2.04716,0-2.82812L31.41406,8.58594z"/></symbol>
<symbol id="arrow-down" viewBox="0 0 10 4"><path d="M0 0h6L3 4z" /></symbol>
<symbol id="fullscreen" viewBox="0 0 512 512"><path d="M462 185.6h-61V111h-74.6V50H462v135.6zM326.4 462v-61H401v-74.6h61V462H326.4zM50 326.4h61V401h74.6v61H50V326.4zM185.6 50v61H111v74.6H50V50h135.6z" /></symbol>
<symbol id="close-button" viewBox="0 0 357 357"><path d="M357 35.7L321.3 0 178.5 142.8 35.7 0 0 35.7l142.8 142.8L0 321.3 35.7 357l142.8-142.8L321.3 357l35.7-35.7-142.8-142.8"/></symbol>
<symbol id="about-button" viewBox="0 0 100 100"><path d="M50 34c1.7 0 3-.4 4.2-1.4 1-1 1.7-2.2 1.7-3.8 0-1.6-1-3-2-4s-2.6-1.3-4.4-1.3c-1.8 0-3.2.4-4.3 1.4-1.2.5-1.8 2-1.8 3.5s.5 3 1.7 4c1 .8 2.5 1.3 4.2 1.3zm4.6 37V39H40.4v5.4h5v27h-5v5.3h19.2V71"/><path d="M50 10c22 0 40 18 40 40S72 90 50 90 10 72 10 50s18-40 40-40m0-5C25 5 5 25 5 50s20 45 45 45 45-20 45-45S75 5 50 5z"/></symbol>
<symbol id="search" viewBox="0 0 16 16"><path d="M1.8 1.8C-.6 4-.6 8 1.8 10.4c2.3 2.3 6.2 2.3 8.6 0 2.3-2.4 2.3-6.3 0-8.6C8-.6 4-.6 1.8 1.8zm8 .7c2 2 2 5.2 0 7.2s-5.4 2-7.3 0c-2-2-2-5.3 0-7.2 2-2 5.2-2 7.2 0zm.2 9l1.5-1.4 4.5 5-1.4 1.5L10 12z"/></symbol>

<!-- Main Menu -->
<symbol id="bible-icon" viewBox="0 0 73 89"><g fill="none" fill-rule="evenodd">	<path fill="#2369AE" d="M0 87.124V8.75c.034-.088.07-.208.07-.297C.342 6.6 1.097 4.958 2.367 3.465c.927-1.076 2.197-1.822 3.5-2.48C6.556.628 7.345.45 8.135.3 8.75.18 9.37.09 10.02 0h61.056c.96.388 1.304 1.045 1.304 1.97-.034 25.42-.034 50.866 0 76.284 0 .627-.07 1.224-.172 1.85-.446 2.212-1.544 4.123-3.466 5.646-1.647 1.315-3.672 1.912-5.8 2.27-.17.03-.377 0-.55.09H1.065c-.48-.18-.79-.567-1.064-.986z"/>	<path fill="#FFF" d="M6.55 80.615v-66.9c.03-.077.057-.18.057-.256.23-1.58.858-2.984 1.915-4.258.772-.918 1.83-1.556 2.916-2.117.57-.306 1.23-.46 1.886-.586.515-.103 1.03-.18 1.572-.256h50.848c.8.33 1.086.892 1.086 1.683-.028 21.697-.028 43.42 0 65.116 0 .535-.057 1.045-.143 1.58-.37 1.887-1.286 3.52-2.886 4.82-1.37 1.12-3.058 1.63-4.83 1.937-.143.026-.314 0-.457.077H7.436c-.4-.153-.657-.485-.886-.842z"/><g stroke="#CDCCCC" stroke-width="4">	<path d="M18.424 18.468h35.62M18.424 27.468h35.62M18.424 36.468h35.62M18.424 45.468h35.62M18.424 55.468h35.62M18.424 64.468h35.62"/></g>	<path fill="#AC1E4E" d="M20.443 28.803c-1.446-2.383-2.717-4.483-4.134-6.817-1.398 2.295-2.688 4.414-4.135 6.778v-1.26c0-7.422.02-14.844-.02-22.266-.01-1.132.235-1.552 1.29-1.503 1.955.097 3.92.058 5.875.01.78-.02 1.133.204 1.123 1.18-.01 7.852 0 15.694 0 23.878z"/></g></symbol>
<symbol id="commentary-icon" viewBox="-1141 1146 116 110">	<path id="Commentary_1" d="M-1141 1243.6v-85.8-.6c.2-.2.5-.2.8-.2h18.3c.3 0 .6 0 .8.2.2.2.2.4.2.7v84.5c0 .5.1.9-.2 1.4-.2.2-.5.2-.8.2h-18.3c-.3-.2-.6-.2-.8-.4zm0-89.1v-8.2c.2-.2.5-.2.8-.2h18.4c.3 0 .5 0 .7.2.2.3.2.6.2.9v6.4c0 .3 0 .6-.2.9-.2.2-.5.2-.9.2h-18.2c-.2 0-.5.1-.8-.2zm0 101.1v-8.2c.2-.2.5-.2.8-.2h18.3c.3 0 .5 0 .8.2.2.2.2.6.2.9v6.6c0 .3 0 .6-.2.9-.2.2-.5.2-.9.2h-18.2c-.2-.2-.5-.1-.8-.4z" fill="#0C5C91"/>	<path id="Commentary_1_" d="M-1078.2 1160.7v81.3c-.2.2-.5.2-.8.2h-16.4c-.3 0-.5 0-.8-.2-.2-.3-.2-.7-.2-1.1V1162c0-.5-.1-.9.1-1.3.2-.2.5-.2.8-.2h16.4c.3 0 .6 0 .9.2zm0 85.5v9.2c-.2.2-.5.2-.8.2h-16.5c-.3 0-.5 0-.7-.2-.2-.3-.2-.6-.2-.9v-7.5c0-1 .1-1.1 1-1.1h16.3c.3 0 .6 0 .9.3zm0-96.6v8.2c-.2.2-.5.2-.8.2h-16.5c-.3 0-.5 0-.7-.2-.2-.2-.2-.5-.2-.7v-6.8c0-.2 0-.5.2-.7.3-.2.6-.2.9-.2h16.3c.2 0 .5-.1.8.2z" fill="#128AC3"/>	<path id="Commentary_2_" d="M-1117 1168h17V1243.1h-17c-.2-.2-.2-.4-.2-.7v-73.1c0-.4-.1-.9.2-1.3zm0-2.3v-7.2h17.1v7.2h-17.1zm0 90.2v-9.5h17v9.5h-17z" fill="#B56D29"/>	<path id="Commentary_3_" d="M-1064 1242.4h-10.9c-.4 0-.5-.1-.5-.5v-1.5-66.2c0-.6.1-.8.7-.8h10.6c.2.2.2.4.2.7v67c.1.5.2.9-.1 1.3zm0-71.3h-10.9c-.3 0-.4-.1-.4-.4v-13.6c0-.3.1-.4.4-.4h10.9c.2.2.2.5.2.8v12.7c0 .4 0 .7-.2.9zm0 75.7v8.7h-10.6c-.5 0-.6-.1-.6-.7v-7.9c0-.5.1-.6.6-.6h9.9c.3.1.5.2.7.5z" fill="#E2292F"/>	<path id="Commentary_4_" d="M-1047.1 1156.5c.1.3.1.5.2.8 6.2 26.2 12.4 52.3 18.6 78.5.1.3.1.6.2.9-.1.3-.3.4-.6.5-4.3 2-8.6 3.9-12.9 5.9-.2.1-.4.2-.7.1-.3-.3-.3-.7-.4-1-1.1-4.5-2.1-9-3.2-13.6-5.1-21.4-10.1-42.9-15.2-64.3-.1-.4-.3-.9-.2-1.4.1-.3.4-.4.6-.5 4.3-2 8.6-3.9 13-5.9.1 0 .3-.1.6 0zm19.9 83.5c.7 3 1.4 6.1 2.2 9.1-.1.3-.3.4-.6.5-4.3 2-8.7 3.9-13 5.9-.2.1-.4.2-.6.1-.2-.2-.3-.5-.3-.9-.6-2.5-1.2-4.9-1.7-7.3-.2-1-.2-1.1.5-1.5 4.3-2 8.6-3.9 12.9-5.9.2 0 .4-.1.6 0zm-22.8-93.8c.6 2.7 1.3 5.4 1.9 8.1-.1.3-.3.4-.6.5-4.3 2-8.7 3.9-13 5.9-.2.1-.4.2-.6.1-.2-.2-.2-.4-.3-.7-.5-2.2-1.1-4.5-1.6-6.7-.1-.2-.1-.5 0-.8.2-.3.4-.4.6-.5 4.3-2 8.6-3.9 12.9-5.9.2 0 .4-.1.7 0z" fill="#2A3781"/></symbol>
<symbol id="search-icon" viewBox="0 0 73 71"><g fill="none" fill-rule="evenodd"><g stroke-width="5" stroke="#CDCCCC">	<path d="M0 11.14h42.594M0 24.64h36.59M0 38.64h40.99M0 50.64h42M0 62.64h42"/></g><g transform="translate(2.375 .18)"><ellipse fill="#90C5FF" cx="24.049" cy="23.895" rx="21.14" ry="20.998"/>	<path fill="#59595A" d="M68.774 61.763l-6.644 6.644-19.092-19.09 6.644-6.645z"/>	<path fill="#ABCB57" d="M49.612 42.67l-6.644 6.644-1.8-1.8 6.643-6.644zM70.646 63.563l-6.644 6.644-1.8-1.8 6.643-6.645z"/>	<path d="M6.656 16.516H43.09M6.656 30.66H43.09" stroke="#D6E7FA" stroke-width="6" stroke-linecap="square"/>	<path d="M47.624 23.895c0-6.255-2.452-12.135-6.905-16.558C36.265 2.914 30.345.477 24.05.477c-6.298 0-12.218 2.437-16.67 6.86C2.925 11.76.473 17.64.473 23.895c0 6.255 2.452 12.135 6.905 16.558 4.452 4.423 10.372 6.858 16.67 6.858 5.47 0 10.654-1.84 14.84-5.22l3.855 3.828 3.476-3.453-3.854-3.83c3.405-4.157 5.258-9.307 5.258-14.74zM24.05 42.475c-4.997 0-9.695-1.932-13.228-5.442-3.533-3.51-5.48-8.175-5.48-13.138 0-4.963 1.947-9.63 5.48-13.138 3.533-3.51 8.23-5.442 13.227-5.442 4.995 0 9.693 1.933 13.226 5.442 3.533 3.51 5.48 8.175 5.48 13.138 0 4.963-1.947 9.63-5.48 13.138-3.533 3.51-8.23 5.442-13.227 5.442z" fill="#59595A"/>	<path d="M47.624 23.895c0-6.255-2.452-12.135-6.905-16.558C36.265 2.914 30.345.477 24.05.477c-6.298 0-12.218 2.437-16.67 6.86l3.442 3.42c3.533-3.51 8.23-5.442 13.227-5.442 4.996 0 9.693 1.933 13.226 5.442 3.533 3.51 5.48 8.175 5.48 13.138 0 4.963-1.947 9.63-5.48 13.138l3.192 3.17.25.25 3.765 3.738.906.902 21.94 21.793 3.322-3.3-1.813-1.8-19.222-19.092-1.813-1.8-1.584 1.572-3.853-3.828c3.405-4.158 5.257-9.31 5.257-14.742z" fill="#5B5B5F" opacity=".4"/></g></g></symbol>
<symbol id="map-icon" viewBox="0 0 113 107">	<path fill="#2A81BE" d="M37.638.113c-.295-.076-.6-.106-.906-.105v96.885l39.14 9.956c.294.075.6.107.904.107V10.07L37.638.113z"/>	<path fill="#78A3D7" d="M33.225.076L2.222 10.263c-.86.283-1.467 1.302-1.467 2.47v91.684c0 .784.275 1.524.746 2.007.344.353.765.54 1.193.54.157 0 .315-.026.47-.076L33.64 96.872l.055.022V.008c-.158 0-.316.017-.47.068z"/>	<path fill="#99C0DF" d="M111.78.527c-.504-.482-1.166-.643-1.784-.44l-30.31 9.998-.04-.015v96.886c.178 0 .357-.022.53-.08l30.88-10.186c.902-.298 1.53-1.307 1.53-2.46V2.546c0-.79-.298-1.537-.805-2.02z"/>	<path fill="#B21E49" d="M9.597 7.176c.044 10.385.023 20.77.023 31.155v1.83c1.974-3.446 3.735-6.525 5.652-9.877l5.646 9.933c0-11.93-.017-23.355.023-34.775.003-.456-.044-.8-.143-1.056l-11.2 2.792z"/></symbol>
<symbol id="media-icon" viewBox="0 0 114 115">	<g fill="none" fill-rule="evenodd"><path d="M17.04 96.947c-2.994-1.997-4.857-5.006-6.822-7.854C3.924 79.933.74 69.67.506 58.588-.08 29.948 20.456 5.578 48.932 1.41c18.792-2.76 35.193 2.818 48.542 16.236 11.282 11.333 16.65 25.293 16.225 41.412-.382 14.43-5.737 26.76-15.433 37.316-.206.22-.5.367-.75.543-1.495-.983-2.537-2.45-3.784-3.7-9.828-9.85-19.6-19.773-29.53-29.52-1.995-1.967-3.668-4.36-6.264-5.68l.014.028c.16-.41-.03-.617-.41-.72-1.835.147-2.598 1.762-3.683 2.834-12.307 12.227-24.557 24.514-36.82 36.787z" fill="#619BD2"/><path d="M17.04 96.947c12.263-12.273 24.527-24.545 36.835-36.773 1.086-1.072 1.85-2.687 3.682-2.834.015.31.06.602.41.72l-.013-.03c.19.587.322 1.19.572 1.747 4.24 9.366 8.508 18.702 12.718 28.083 3.125 6.958 6.53 13.784 9.316 20.89-1.878 1.776-4.386 2.304-6.704 2.965-10.563 2.994-21.14 3.405-31.85.367-6.043-1.718-11.573-4.287-16.737-7.766.395-.705 1.187-1.307.38-2.23-.674-.794-1.38-.368-2.112-.148-.367.103-.763.103-1.144.147-.338-1.483-1.203-2.35-2.788-2.364-1.027-.792-2.053-1.555-2.567-2.773z" fill="#FFD963"/><path d="M80.545 108.72c-2.787-7.105-6.19-13.93-9.315-20.89-4.21-9.38-8.48-18.716-12.72-28.082-.248-.558-.38-1.16-.57-1.747 2.595 1.337 4.268 3.73 6.263 5.682 9.93 9.747 19.702 19.67 29.53 29.52 1.247 1.25 2.29 2.717 3.785 3.7-4.797 5.183-10.18 9.513-16.973 11.818z" fill="#896529"/><path d="M22.394 102.04c.38-.043.777-.03 1.144-.146.733-.22 1.423-.63 2.112.147.807.94.015 1.542-.38 2.232-1.087-.587-2.187-1.16-2.876-2.23z" fill="#F5D77E"/><path d="M19.606 99.677c1.585 0 2.45.866 2.788 2.364-1.262-.41-2.083-1.32-2.788-2.363z" fill="#F5D77E"/></g></symbol>
<symbol id="parallel-icon" viewBox="0 0 49 49"><path fill="#43A6DD" d="M46,16H36v-5c0-0.39258-0.22949-0.74854-0.58691-0.91064c-0.35645-0.1626-0.77734-0.1001-1.07129,0.1582 l-8,7C26.12402,17.4375,26,17.71143,26,18s0.12402,0.5625,0.3418,0.75244l8,7C34.52734,25.91504,34.7627,26,35,26 c0.13965,0,0.28125-0.0293,0.41309-0.08936C35.77051,25.74854,36,25.39258,36,25v-5h8v16H4V20h8v5 c0,0.39258,0.22949,0.74854,0.58691,0.91064C12.71875,25.9707,12.86035,26,13,26c0.2373,0,0.47266-0.08496,0.6582-0.24756l8-7 C21.87598,18.5625,22,18.28857,22,18s-0.12402-0.5625-0.3418-0.75244l-8-7c-0.29492-0.25781-0.71387-0.31934-1.07129-0.1582 C12.22949,10.25146,12,10.60742,12,11v5H2c-1.10449,0-2,0.89551-2,2v20c0,1.10449,0.89551,2,2,2h44c1.10449,0,2-0.89551,2-2V18 C48,16.89551,47.10449,16,46,16z"/></symbol>
<symbol id="comparison-icon" viewBox="0 0 49 49"><rect x="22" y="6" fill="#B3B3B3" width="4" height="36"/><rect x="22" y="26" fill="#999999" width="4" height="2"/><path fill="#43A6DD" d="M37.41406,14.58594l-2.82812,2.82812L39.17188,22H8.82812l4.58594-4.58594l-2.82812-2.82812l-8,8	c-0.78125,0.78125-0.78125,2.04688,0,2.82812l8,8l2.82812-2.82812L8.82812,26h30.34375l-4.58594,4.58594l2.82812,2.82812l8-8	c0.78125-0.78125,0.78125-2.04688,0-2.82812L37.41406,14.58594z"/></symbol>
<symbol id="audio-icon" viewBox="0 0 148 112"><g fill="none" fill-rule="evenodd">	<path d="M.2 38.2c0-9.8 3-18.4 9.3-25.6C14 7.6 19.3 4 25.7 1.8 30 .4 34.5 0 39 .4 45.2 1 50.8 3.2 55.7 7c4.5 3.5 7.7 8 9.5 13.5C66.6 24.7 67 29 66.8 33c0 4.4-1 8.6-2.2 12.7l-.8 2.5c0 .6-.5.7-1 .5l-8.5-3-.6-.3c-.6 0-.7-.3-.5-1 1.3-4 2.3-7.8 2.4-12 0-6.6-1.8-12.5-7.2-16.7-3.4-2.8-7.4-4-11.8-4.2-10.8 0-18 5.7-22.6 14.8-1.7 3-2.3 6.6-2.5 10-.3 5.3.8 10.2 2.6 15 3 6.5 7 12 12 17 5 4.7 8 10.3 10 17l3 8c2 3 4 5.2 7 6.3 5 1.8 10-.8 12-5.7 1-4 0-8-2-11-1-2-1-2 1-3 2-2 5-3 7-5 1-1 1-1 2 0 3 5 5 10 5 16-1 6-4 12-10 15-5 3-10 4-15 3s-10-5-13-9-5-8-6-12c-2-6-5-12-9-16-6-6-11-14-13.6-22-3-2-3.5-7-4-11z" fill="#666"/>	<path d="M112 62l3-7 2-4.6c.6-1.2 1.8-2 3-2 1.5.2 2.5.8 3 2l6 12.8c.4.6.6.7 1 0l2.3-2.6c.6-1 1.5-1.2 2.7-1.2h12c.6 0 .8.2.8.8v4c0 .7-.2 1-1 1-3-.2-6.2 0-9.3-.2-.7 0-1 .2-1.5.7-1.5 2-3 3.7-4.6 5.6-1.4 2-4.7 1.6-5.7-.5-1.6-3.7-3.5-7.3-5.2-11 0-.2 0-.5-.4-.4v.4L114 73c-.6 1.3-1.8 2-3 2-1.8-.3-2.8-1.2-3-2.6l-1.7-6.3-2-7-2-7c-.3-1-.6-2-1.2-3v4l-1 7-1 9c0 3-1 6-1 9l-3 5c0 2-1 3-3 3s-3-.2-3-2l-4-16-3-10v-1L80 61l-1 4c-1 1-2 1.6-3 1.6H60c-.5 0-.7 0-.6-.7v-4c0-.7 0-1 1-1h11c1 0 1.4-.2 1.6-1l3-9c.7-1.4 1.3-3 1.8-5 .5-1 1.7-2 3.2-2 1.5 0 2.7.8 3 2l3.2 11c1 3 2 6 2.8 9l1 1.7s0 .4.4.3c.3 0 .3-.3.3-.5l.8-4.5 1.5-8 1.5-8.6 1.2-7c.4-2.6 1-5 1.3-7.4.2-1 .5-2.4 2.2-3 2-.5 3.8.5 4.2 2 .8 4 1.8 7.6 2.7 11.4l3 10.7 2 9c0 .4 0 .6 1 1z" fill="#2967B2"/>	<path d="M48.5 34.4c-.2 5-2.4 9.6-5.7 13.6l-.4.4c-.4.4-.4.6.2.8 3.4 1 6 3 7.5 6.4 2 4 2 8-1 11.4-2 3-6 3.7-10 2-4-2-6-5.6-7-10-1-5.6 1-10.4 4-14.6 2-2 4-4 5-6.3 1-2 1-4 0-6s-3-3-5-3c-3 0-5 2-6 4s-2 4-2 6c0 1 0 1-1 1l-6-1c-1 0-1 0-1-1 2-5 4-10 9-13 7-4 16-1 20 6 1 2 2 4 2 6.6z" fill="#666"/></g></symbol>
<symbol id="feedback" viewBox="0 0 100 100"><path fill="#2369AE" d="M75 12.5H25c-12.5 0-18.75 6.25-18.75 18.75V50c0 12.5 6.25 18.75 18.75 18.75 0 0 6.254-.223 12.5 0 10.5.375 14.214 3.227 18.75 6.25L75 87.5V68.75c12.5 0 18.75-6.25 18.75-18.75V31.25c0-12.5-6.25-18.75-18.75-18.75zM83.75 50c0 6.95-1.8 8.75-8.75 8.75H65v10.064l-3.87-2.58c-4.66-3.13-10.462-7.02-23.273-7.48-1.96-.068-4.104-.104-6.373-.104-3.314 0-5.916.076-6.64.1-6.82-.027-8.594-1.852-8.594-8.75V31.25c0-6.95 1.8-8.75 8.75-8.75h50c6.95 0 8.75 1.8 8.75 8.75V50z"/></symbol>
<symbol id="stats-icon" viewBox="0 0 49 49"><path fill="#E86C60" d="M12,27H2c-0.55225,0-1,0.44727-1,1v12c0,0.55273,0.44775,1,1,1h10c0.55225,0,1-0.44727,1-1V28 C13,27.44727,12.55225,27,12,27z"/><path fill="#EFD358" d="M28,17H18c-0.55225,0-1,0.44727-1,1v22c0,0.55273,0.44775,1,1,1h10c0.55225,0,1-0.44727,1-1V18 C29,17.44727,28.55225,17,28,17z"/><path fill="#72C472" d="M44,7H34c-0.55225,0-1,0.44727-1,1v32c0,0.55273,0.44775,1,1,1h10c0.55225,0,1-0.44727,1-1V8 C45,7.44727,44.55225,7,44,7z"/></symbol>
<symbol id="deafbible-icon" viewBox="0 0 49 46"><path fill="#2878B9" d="M48.735 17.14c-.337-1.01-1.493-1.54-3.803-1.252-1.204.144-2.166.674-2.84 1.3-.674.625-.867 1.3-1.01 1.925 0-.24-1.108-5.102-1.3-5.776-.193-.722-1.975-6.21-2.215-7.125-.24-.914-.963-2.888-1.204-3.514-.433-1.203-2.743-1.444-3.032.53-.24-.915-.625-2.936-1.925-3.177-1.3-.24-2.55.338-2.503 2.504-.722-.385-2.36-.096-2.503 1.588-.05.915.095 1.974.192 2.89.096.77.24 1.443.288 1.924-.577-.433-2.262-.337-2.262 1.637 0 0-.048 2.647.144 4.573.145 1.444-.048 1.636-.096 3.32-.048.964.096-1.49-.048.05-.048.336-.096.72-.193 1.058-.096-.337-.192-.673-.192-1.06-.145-1.49-.048.916-.048-.047-.048-1.685-.29-1.877-.097-3.32.193-1.927.145-4.574.145-4.574 0-1.974-1.685-2.022-2.263-1.637.05-.48.193-1.155.29-1.925.096-.914.24-1.973.192-2.888-.145-1.684-1.733-1.973-2.503-1.588C19.996.388 18.744-.19 17.445.05c-1.3.242-1.685 2.215-1.926 3.178-.29-1.974-2.6-1.78-3.032-.53-.24.626-.963 2.6-1.204 3.514-.24.915-2.022 6.45-2.214 7.125-.193.674-1.3 5.535-1.3 5.776-.144-.578-.337-1.3-1.01-1.925-.675-.626-1.686-1.156-2.89-1.3-2.358-.29-3.513.24-3.802 1.25-.24.723.193 1.542.722 1.686.53.193 2.022.82 2.696 1.252.674.48.674.818.77 1.444.096.626.48 1.06.722 1.83.24.77.433 1.828.626 4.765.24 2.936 3.177 5.97 3.562 7.028.144.433.29 1.203.722 3.032.433 1.83.337 2.792.337 2.792.53 3.707 10.638 5.006 10.927 3.37 1.204-5.97 2.648-5.536 3.177-8.617.047-.24.095-1.155.095-1.444.05.24.097 1.155.097 1.444.53 3.13 1.973 2.696 3.177 8.617.336 1.588 10.396.337 10.926-3.37 0 0-.096-.963.337-2.792.433-1.78.577-2.6.722-3.032.385-1.06 3.32-4.044 3.562-7.028.24-2.937.385-3.996.626-4.766.24-.77.626-1.204.722-1.83.096-.626.096-.963.77-1.444.674-.482 2.166-1.107 2.696-1.252.434-.144.867-.963.675-1.685z"/></symbol>
<symbol id="settings-button" viewBox="0 0 49 49"><path fill="#B3B3B3" d="M45,10H14V6h31c0.55228,0,1,0.44772,1,1v2C46,9.55229,45.55228,10,45,10z"/><rect x="21" y="6" fill="#898989" width="4" height="4"/><path fill="#B3B3B3" d="M45,42H14v-4h31c0.55228,0,1,0.44772,1,1v2C46,41.55228,45.55228,42,45,42z"/><rect x="21" y="38" fill="#898989" width="4" height="4"/><path fill="#B3B3B3" d="M45,26H32v-4h13c0.55228,0,1,0.44772,1,1v2C46,25.55228,45.55228,26,45,26z"/><rect x="39" y="22" fill="#898989" width="4" height="4"/><path fill="#43A6DD" d="M14,10H3c-0.55228,0-1-0.44771-1-1V7c0-0.55228,0.44772-1,1-1h11V10z"/><path fill="#43A6DD" d="M32,26H3c-0.55228,0-1-0.44772-1-1v-2c0-0.55228,0.44772-1,1-1h29V26z"/><path fill="#43A6DD" d="M14,42H3c-0.55228,0-1-0.44772-1-1v-2c0-0.55228,0.44772-1,1-1h11V42z"/><circle fill="#E6E6E6" cx="15" cy="8" r="7"/><circle fill="#E6E6E6" cx="33" cy="24" r="7"/><circle fill="#E6E6E6" cx="15" cy="40" r="7"/></symbol>
<symbol id="link" viewBox="0 0 512 512"><path fill="#2369AE" d="M342.416 169.584c10.014 10.014 10.014 26.25 0 36.266l-136.57 136.57c-10.014 10.015-26.25 10.014-36.265 0-10.014-10.015-10.014-26.252 0-36.266l136.57-136.57c10.014-10.014 26.25-10.014 36.267 0zM185.54 399.377c-20.102 20.103-52.812 20.103-72.916 0-20.103-20.104-20.103-52.814 0-72.917l96.79-96.68c-32.478-7.886-68.168.852-93.53 26.213L79.02 292.857c-38.693 38.693-38.693 101.43 0 140.123 38.694 38.693 101.43 38.693 140.123 0l36.864-36.864c25.357-25.358 34.095-61.042 26.216-93.517l-96.682 96.776zM292.857 79.02l-36.862 36.863c-25.362 25.362-34.154 60.996-26.27 93.476l96.735-96.738c20.103-20.103 52.81-20.103 72.915 0 20.104 20.103 20.104 52.812 0 72.916l-96.73 96.73c32.477 7.88 68.112-.905 93.47-26.265l36.865-36.864c38.692-38.693 38.692-101.428 0-140.12-38.695-38.695-101.43-38.695-140.124 0z"/></symbol>

<!-- Settings Menu -->
<symbol id="verses-toggle" viewBox="0 0 512 512"><path d="M181 83.7h268v83H181zm0 131h268v83H181zm0 131h268v83H181zm-115-238v-12c5.5-.3 9.4-.6 11.6-1 3.5-1 6.4-2.5 8.7-4.8 1.5-2 2.7-4 3.5-7 .5-2 .7-3 .7-4h14.8v90H87v-62H66zm-.7 177c2.5-6 8.5-12.4 18-19 8-6 13.3-10 15.7-12.6 3.7-3 5.5-8 5.5-12s-1-7-3.2-9c-2-2.3-5-4-9-4-5.5 0-9 2-11 6-1.2 2.6-2 6-2 11H62c.4-7.3 1.8-14 4.3-18.2 4.7-9 13-13.5 25-13.5 9.6 0 17.2 2.5 22.8 7.8 6 5.5 9 12.4 9 21 0 6.8-2 12.7-6 17.8-2 3.2-7 7-13 11.3l-7 5-9 6.7c-1 1.3-3 3-4 5h39v15H61c.3-6.5 1.7-12.3 4.3-17.7m12.5 117c0 3.7.6 6.7 1.7 9 2 4.3 6 6.5 11.7 6.5 3.5 0 6.5-1.2 9-3.6 2.7-3 4-6 4-11 0-6-2.4-10-7.2-12-2.7-1-7-2-13-2v-12c5.8 0 9.8-1 12-2 4-1.8 6-5.4 6-10.6 0-4-1-7-3-9s-4.8-3.5-8.4-3.5c-4.2 0-7.2 1.3-9.2 4-2 2.6-3 6.2-2.8 10.6H62c.3-4.5 1-8.7 2.4-12.7 1.4-3.5 3.7-6.8 6.8-9.7 2.3-2.3 5-4 8.2-5 3.2-1 7-1.7 11.7-1.7 9 0 16 2.2 21 6.7 6 4.5 8 10.5 8 18 0 5.3-1 9.8-4 13.4-2 2.4-4 4-6 4.8 2 0 4 1.5 7 4.3 5 4 7 10 7 17 0 7.5-2.3 14.2-8 20-5 5.7-13 8.5-23 8.5-12.7 0-21.6-4-26.5-12-2.5-4.5-4-10.3-4.2-17.5h17z"/></symbol>
<symbol id="chapters-toggle" viewBox="0 0 512 512"><path d="M181 83.7h268v83H181zm-126.5 131h394.7v83H54.5zm0 131h394.7v83H54.5zM51 74V52c10.4-.6 17.6-1 21.7-2 6.5-1.5 12-4.4 16-8.7 3-3 5-7 6.6-11.8 1-3 1.3-5.2 1.3-6.7H124V189H90.2V74.4H51V74z"/></symbol>
<symbol id="titles-toggle" viewBox="0 0 512 512"><path d="M54.5 50.5h308v121h-308z"/><path d="M54.5 214.7h394.7v83H54.5zm0 131h394.7v83H54.5z"/></symbol>
<symbol id="notes-toggle" viewBox="0 0 512 512"><path d="M60.4 79.4h393v83h-393zm0 131h268.3v83H60.4zm0 131h395.2v83H60.4zm355.4-30l-63-108.2h126"/></symbol>
<symbol id="wordsofchrist-toggle" viewBox="0 0 512 512"><path d="M66.6 83.7H441v83H66.5z"/><path fill="#F00" d="M66.6 214.7H441v83H66.5z"/><path d="M66.6 345.7H441v83H66.5z"/></symbol>
<symbol id="media-toggle" viewBox="0 0 48 48"><path fill="#223E49" d="M45,45H3c-1.105,0-2-0.895-2-2V5c0-1.105,0.895-2,2-2h42c1.105,0,2,0.895,2,2v38C47,44.105,46.105,45,45,45z"/><circle fill="#EFD358" cx="21" cy="15" r="4"/><path fill="#5A7A84" d="M41.792,35.39l-10-13c-0.378-0.492-1.207-0.492-1.585,0l-8.243,10.715l-6.184-7.73 c-0.379-0.475-1.183-0.475-1.562,0l-8,10C5.697,36.028,6.161,37,7,37h34C41.829,37,42.298,36.047,41.792,35.39z"/></symbol>
<symbol id="justify-toggle" viewBox="0 0 512 512"><path d="M54.4 83.7h394.8v83H54.4zm0 131h394.8v83H54.5zm0 131h394.8v83H54.5z"/></symbol>
<symbol id="language'" viewBox="0 0 31 25"><path d="M6.84 24.777c-.075 0-.152-.015-.222-.045-.152-.066-.247-.195-.247-.334v-5.396C2.26 17.277 0 14.258 0 10.476 0 4.63 6.663.223 15.5.223S31 4.63 31 10.476c0 5.844-6.663 10.252-15.5 10.252-.29 0-.575-.013-.86-.025h-.02l-7.52 4.01c-.08.043-.17.064-.26.064zM15.5.98C7.2.98.94 5.063.94 10.476c0 2.517 1.06 5.94 6.108 7.954.16.063.26.195.26.34v4.924l6.924-3.692c.084-.046.187-.072.284-.063l.174.005c.27.012.537.023.81.023 8.3 0 14.56-4.08 14.56-9.495C30.06 5.063 23.8.98 15.5.98z" fill-rule="evenodd"/></symbol>
<symbol id="eng2p-button" viewBox="0 0 512 512"><path d="M462 393.6H355.6c0-115.8-58-60.8-58-162.3 0-36.6 24-56.5 54.8-56.5 45.5 0 77.2 43.5 34 124.7-14 26.7 15.2 33 46.6 40.3 31.4 7.2 29 23.8 29 53.8zM289 326c-39.4-9.2-76-17.2-58.3-50.8 54.2-102 14.3-156.8-43-156.8-58.2 0-97 56.8-42.8 156.8C163.2 309 125 317 86.4 326 47 335 50 355.7 50 393.5h275.6c0-37.8 3-58.6-36.5-67.7z"/></symbol>
<symbol id="visualfilters-button" viewBox="0 0 512 512"><path d="M200 28.2c0 4.7-14.2 43-24.5 66.3L165.2 119 150 155.5l-13.6 33c-4 10-8.3 20-9.4 22.5L84.5 313c-7 16.8-14.4 33.4-16.5 37-7.7 13-16.7 19-29.7 19.8l-7 .5-.5 6.4c-.2 3.6 0 6.7 0 7 .3 0 23.2.3 51 .3H132v-13.7l-12.7-.5c-34.2-1.3-34.4-9.7-2.3-85l6.3-14.8 69 .2 69 .3 7 17.5 11.4 29.5c2.5 6.6 5.4 14 6.4 16.2 4 7.3 7 21.4 6 25.5-1 8-5 10-24 10.6l-13 .5V384h67c37 0 67 .4 68 .8.5 1-.4 3-8.5 19.7-7.7 15.8-13.7 26-27.6 47.2-12 18-11.7 17.6-9.8 24.6.5 1.6 4 1.7 60 1.5l60-.3 2-18c1-10 3-23.6 3.6-30.5 1-7 2-15 2-17.8l1-5.2h-14l-1.3 4.2c-1.8 6-8.6 20.3-11 23.5-4.4 5.5-8.4 7.3-18.8 8.3-12.2 1.2-47 1.3-47.7.2-.5-.5 5-7.2 12-14.8 28.3-31.2 41.3-49 51.5-70.7 10-21.7 14-41.3 13-64.7-1.7-41.4-16.2-75.3-43.4-101-20.2-19.2-44.6-31.2-75.3-37-16.4-3.3-43.5-3.3-60-.2-30.6 6-55 18.2-76.7 38.6-12 11-26 31.8-32 46.8l-2.3 6.5c0 .2 10.5.2 23.3 0l23-.2 2-8c14-39 38-62 73-68 16-3 35-1.6 49.3 3.4 35.5 12 59.6 46 67 96 2.4 15 2.4 43 0 59-1.8 12-6.5 32-9 38l-1.6 3-10-.7c-8-.3-11.4-1-14.6-2.5-12-6.3-22-25.4-43-80.3l-17.2-45c-7.4-18.7-15-38.5-17-44-7-18.8-7-18.5-10.6-17.7-13 3-31 15-41.3 28.7l-2 2.7 8 20c4.4 11 8 20.3 8 21 0 1-18 1-62 1-34 0-62-.3-62-.5 0-.6 5.4-13.6 7.5-18l5-11 7.6-18 9-22 23-55 7-16c2.6-6 5-11.3 5.7-11 .8 0 3 5.7 6 12.2l12 30.6 7.5 19s5-2 10.6-4.8c10-5.4 23.6-10.6 33-12.6l6.2-2c.5-.5-1.6-7-4.6-14.7l-9-23.4-7-18c-11-26-21.4-56.4-21.4-60 0-1-3-1.3-14-1.3-10.5 0-14 .2-14 1z"/><path d="M157.4 281.2c-.4 2.4-.7 10.8-.6 18.8 0 23 3.8 38.8 14.2 60.6 10.6 22 25 41.2 50.2 67 7.8 8 13.3 14.3 12.8 14.8-1.3 1.3-51.8 0-56-1.4-8.4-3-14-10.3-20-26.3l-3.5-8.8h-13l.3 4 2.2 21 3.8 31 1.7 15H269l1.5-3.8c.8-2 1.5-4.3 1.5-5 0-.8-5-9-11-18.7-22-34-34.4-58-43.2-83.6-9-26-12.2-45-11.7-71.4l1-18h-48l-1 4.4z"/></symbol><!-- Text Chooser Icons -->

<!-- Audio Icons -->
<symbol id="audio-toggle" viewBox="0 0 49 49">	<path d="M12 43h-.4c-.4-.3-.6-.6-.6-1V6c0-.4.2-.7.6-1 .3 0 .7 0 1 .2l24 18c.3.2.4.5.4.8s0 .6-.4.8l-24 18-.6.2z"/><path fill="currentColor" d="M17 43H9c-1 0-2-1-2-2V7c0-1 1-2 2-2h8c1 0 2 1 2 2v34c0 1-1 2-2 2zM39 43h-8c-1 0-2-1-2-2V7c0-1 1-2 2-2h8c1 0 2 1 2 2v34c0 1-1 2-2 2z"/></symbol>
<symbol id="audio-prev" viewBox="0 0 512 512"><path d="M94.8 370V142H50v228h44.8zm183.7 13L94.8 256l183.7-127v254zm183.5 0L278.3 256 462 129v254z"/></symbol>
<symbol id="audio-next" viewBox="0 0 512 512"><path d="M462 370V142h-44.8v228H462zM233.5 129l183.7 127-183.7 127V129zM50 129l183.7 127L50 383V129z"/></symbol>
<symbol id="audio-options" viewBox="0 0 512 512"><path d="M462,283.742v-55.485l-49.249-17.514c-3.4-11.792-8.095-23.032-13.919-33.563l22.448-47.227 l-39.234-39.234l-47.226,22.449c-10.53-5.824-21.772-10.52-33.564-13.919L283.741,50h-55.484l-17.515,49.25 c-11.792,3.398-23.032,8.094-33.563,13.918l-47.227-22.449l-39.234,39.234l22.45,47.227c-5.824,10.531-10.521,21.771-13.919,33.563 L50,228.257v55.485l49.249,17.514c3.398,11.792,8.095,23.032,13.919,33.563l-22.45,47.227l39.234,39.234l47.227-22.449 c10.531,5.824,21.771,10.52,33.563,13.92L228.257,462h55.484l17.515-49.249c11.792-3.398,23.034-8.095,33.564-13.919l47.226,22.448 l39.234-39.234l-22.448-47.226c5.824-10.53,10.521-21.772,13.919-33.564L462,283.742z M256,331.546 c-41.724,0-75.548-33.823-75.548-75.546s33.824-75.547,75.548-75.547c41.723,0,75.546,33.824,75.546,75.547 S297.723,331.546,256,331.546z"/></symbol>

<!-- Inline Icons  -->
<symbol id="fancy-arrow" viewBox="0 0 512 512"><path d="M204.2 38.7l.3 14.8h115l.3-14.8.3-14.7H204l.2 14.7zM206 97v15h115l-.2-14.8-.3-14.7-57.2-.3L206 82v15zm-2 111.5V276h-53.5c-29.4 0-53.5.3-53.5.6s4 5.3 8.7 11l11.8 14.4 30.5 37 30 36.4c15 18.8 83.4 101 84 101 .5 0 8.6-9.4 18.2-21l49.3-60 84.3-102.2c7.2-9 13.2-16.4 13.2-16.7 0-.3-24-.5-53.5-.5H320V141H204v67.5z"/></symbol>
<symbol id="image-icon" viewBox="0 0 512 512"><path fill="#628AA6" fill-rule="evenodd" d="M270.5 255.5c0-24 19.6-43.7 43.8-43.7 24.2 0 43.8 19.6 43.8 43.7s-19 43.8-43.2 43.8-43.8-19.6-43.8-43.8zm80 46c-10.3 8-23 12.4-36.2 12.4-13.4 0-26.2-5-36.4-13-27 10-39.7 44.2-39.7 60H389c0-15.7-12-50-38.6-60zm111-150V462H164.8v-54.7L118 417.7 50.6 114.5 340 50l22.6 101.4h98.8zm-296.6 0h165l-14.5-64-227.6 51 45.2 203 31.4-7v-183zM429.2 183h-233v207.8h233.3V183z"/></symbol>
<symbol id="video-icon" viewBox="0 0 512 512"><path fill="#628AA6" fill-rule="evenodd" d="M354.5 388.5c-20.6 24-57 40-98.5 40s-78-16-98.5-40h197zM462 83.5v280H50v-280h412zm-40 40H90v200h332v-200zM221 285.8V165.6l98 60-98 60.2z"/></symbol>
<symbol id="maps" viewBox="0 0 80 80"><path fill="#628AA6" fill-rule="evenodd" d="M40.5 5C28.072 5 18 15.075 18 27.5 18 48.983 40.5 77 40.5 77S63 48.983 63 27.5C63 15.075 52.926 5 40.5 5zm0 34.92c-6.71 0-12.15-5.44-12.15-12.15s5.44-12.15 12.15-12.15 12.15 5.44 12.15 12.15-5.44 12.15-12.15 12.15z"/></symbol>
<symbol id="hope" viewBox="0 0 51 50"><path fill="#628AA6" fill-rule="evenodd" d="M0 0h19v3h-1.4c-1.5 0-2.6 0-3.2.4-.6.3-1 .8-1.4 1.5-.2.4-.3 1.5-.3 3.2v13.6H38V8.5 5.2c-.2-.7-.6-1.3-1.2-1.6-.7-.4-1.6-.6-3-.6H32V0h18.8v3H49c-1.2 0-2.2 0-2.7.4-.6.3-1 .7-1.2 1.2C45 5 45 6.2 45 8v33.3c0 1.8 0 3 .3 3.5.4.5.8 1 1.5 1 .5.2 2 .3 4.3.3v3H32v-3h1.4c1.7 0 3 0 3.4-.3.6-.2 1-.6 1-1 .3-.5.3-1.7.3-3.8V25.5H12.8v15.7c0 1.8 0 3 .4 3.5.3.5.8 1 1.5 1 .5.2 2 .3 4.4.3v3H0v-3h1.2c1.8 0 3 0 3.4-.2.5-.2.8-.6 1-1.2.4-.5.5-1.5.5-3V8c0-1.6 0-2.7-.3-3.3-.2-.6-.6-1-1-1.3C4 3 3 3 2 3H0V0z"/></symbol>

<!-- Bible Picker -->
<symbol id="provider-fcbh" viewBox="0 0 350 216"><polygon fill="#CA4316" points="215.8,61.5 215.8,92.5 246.5,92.5 277.2,92.5 277.2,61.5 246.5,61.5"/><polygon fill="#CA4316" points="215.8,123 215.8,154 246.5,154 277.2,154 277.2,123 246.5,123"/><polygon fill="#CA4316" points="308,0 184.8,0 184.8,30.5 308,30.5 308,184.8 184.8,184.8 184.8,215.5 308,215.5 338.8,215.5 338.8,0"/><polygon fill="#CA4316" points="30.8,30.5 154,30.5 154,0 30.8,0 0,0 0,215.5 30.8,215.5 154,215.5 154,184.8 30.8,184.8"/><rect x="154" y="30.5" fill="#CA4316" width="30.8" height="154"/></symbol>
<symbol id="provider-abs" viewBox="0 0 100 60"><path fill="#004b85" d="M8.8 28.2l29.7 13.6-28.2-26.3-1.5 12.7m39.7 8.6L50 11.6c-2.7-2.4-5.7-4-8.5-5l7 30.2M11 9.8l-.6 5.6L40.6 40 19.2 8c-2 .6-5 1.3-8.2 2M6.4 49.3c7-.8 14.5-3.2 16-3.7h.4c1.4-.6 7.4-2.4 14-1.6l-28-15.7-2.4 21M32 5.3l13.7 32L41.4 7c-3.4-1-7-1.4-9.4-1.3M22.8 7h-.2c-.6 0-1.8.5-3.3 1L43 38.2l-11-33c-4.4.2-8.2 1.2-9.2 1.6m54.7 0h-.2v-.2c-1.2-.3-5-1.3-9.3-1.4l-11 33L80.7 7.8c-1.5-.5-2.7-1-3.2-1M91.2 28l-28 16c6.6-.7 12.6 1 14 1.6h.2c1.7.6 9 3 16.2 3.8l-2.4-21m-1.5-13L61.5 42l29.7-13.6-1.5-12.7M89 10l-8.2-2-21.4 32 30.2-24.6L89 10M58.6 6.5l-4.3 30.7L68 5.2c-2.4 0-6 .4-9.4 1.4m-8.6 5l1.5 25.2 7-30c-2.8.8-5.8 2.4-8.5 4.8z"/><path fill="#e03a3e" d="M50 52l-4.8-3h-17v5.4H72V49H55l-5 3m25-2.5c-.4-.3-.8-.4-1.2-.4-.4 0-.7 1-1 1l-.4 1s0 1 .4 1c.3 1 .6 1 1 1h1c.3 0 .5-.5.5-1s-.2-.6-.5-1m0 2l-1 .4-1-.4-.2-1s0-.6.3-1 0 0 1 0v1s0 .7-.8 1m0-1.2c0-.2 0-.4-.4-.4h-1v1h.3v-1h.7v.5h.4v-1h.4l.2-.5m-.6.2h.2V50h.3c.3 0 .3 0 .3.2v.2z"/></symbol>
<symbol id="lemma" viewBox="0 0 512 512"><g fill="#333"><path d="M200 28.2c0 4.7-14.2 43-24.5 66.3L165.2 119 150 155.5l-13.6 33c-4 10-8.3 20-9.4 22.5L84.5 313c-7 16.8-14.4 33.4-16.5 37-7.7 13-16.7 19-29.7 19.8l-7 .5-.5 6.4c-.2 3.6 0 6.7 0 7 .3 0 23.2.3 51 .3H132v-13.7l-12.7-.5c-34.2-1.3-34.4-9.7-2.3-85l6.3-14.8 69 .2 69 .3 7 17.5 11.4 29.5c2.5 6.6 5.4 14 6.4 16.2 4 7.3 7 21.4 6 25.5-1 8-5 10-24 10.6l-13 .5V384h67c37 0 67 .4 68 .8.5 1-.4 3-8.5 19.7-7.7 15.8-13.7 26-27.6 47.2-12 18-11.7 17.6-9.8 24.6.5 1.6 4 1.7 60 1.5l60-.3 2-18c1-10 3-23.6 3.6-30.5 1-7 2-15 2-17.8l1-5.2h-14l-1.3 4.2c-1.8 6-8.6 20.3-11 23.5-4.4 5.5-8.4 7.3-18.8 8.3-12.2 1.2-47 1.3-47.7.2-.5-.5 5-7.2 12-14.8 28.3-31.2 41.3-49 51.5-70.7 10-21.7 14-41.3 13-64.7-1.7-41.4-16.2-75.3-43.4-101-20.2-19.2-44.6-31.2-75.3-37-16.4-3.3-43.5-3.3-60-.2-30.6 6-55 18.2-76.7 38.6-12 11-26 31.8-32 46.8l-2.3 6.5c0 .2 10.5.2 23.3 0l23-.2 2-8c14-39 38-62 73-68 16-3 35-1.6 49.3 3.4 35.5 12 59.6 46 67 96 2.4 15 2.4 43 0 59-1.8 12-6.5 32-9 38l-1.6 3-10-.7c-8-.3-11.4-1-14.6-2.5-12-6.3-22-25.4-43-80.3l-17.2-45c-7.4-18.7-15-38.5-17-44-7-18.8-7-18.5-10.6-17.7-13 3-31 15-41.3 28.7l-2 2.7 8 20c4.4 11 8 20.3 8 21 0 1-18 1-62 1-34 0-62-.3-62-.5 0-.6 5.4-13.6 7.5-18l5-11 7.6-18 9-22 23-55 7-16c2.6-6 5-11.3 5.7-11 .8 0 3 5.7 6 12.2l12 30.6 7.5 19s5-2 10.6-4.8c10-5.4 23.6-10.6 33-12.6l6.2-2c.5-.5-1.6-7-4.6-14.7l-9-23.4-7-18c-11-26-21.4-56.4-21.4-60 0-1-3-1.3-14-1.3-10.5 0-14 .2-14 1z"/><path d="M157.4 281.2c-.4 2.4-.7 10.8-.6 18.8 0 23 3.8 38.8 14.2 60.6 10.6 22 25 41.2 50.2 67 7.8 8 13.3 14.3 12.8 14.8-1.3 1.3-51.8 0-56-1.4-8.4-3-14-10.3-20-26.3l-3.5-8.8h-13l.3 4 2.2 21 3.8 31 1.7 15H269l1.5-3.8c.8-2 1.5-4.3 1.5-5 0-.8-5-9-11-18.7-22-34-34.4-58-43.2-83.6-9-26-12.2-45-11.7-71.4l1-18h-48v4.4z"/></g></symbol>
<symbol id="earth" viewBox="0 0 49 49"><path d="M14.4 14h9v9.5h-10c0-3.3.4-6.5 1-9.4m0 21h9v-9.4h-10c0 3.3.4 6.5 1 9.4m9-23V0C20 1 16.8 5.5 15 12h8.5m13.2 23h10c1.4-3 2.2-6.2 2.3-9.5H37.6c0 3.4-.3 6.5-1 9.4m0-21c.7 3 1 6 1 9.4H49c0-3.3-1-6.5-2.3-9.4h-10m-.5-2h9.5C42.4 6.6 37 2.5 30.5.8 33 3.2 35 7 36.2 12M23.5 49V37H15c1.7 6.6 4.8 11.2 8.5 12M34 12c-1.6-6.5-4.7-11-8.4-12v12H34m1.6 13.5h-10V35h9c.6-3 1-6.2 1-9.5M0 25.5C0 28.8 1 32 2.3 35h10c-.6-3-1-6-1-9.5H0M12.8 37H3.3c3.3 5.5 8.7 9.6 15.2 11.3C16 45.8 14 42 12.8 37m23.4 0c-1.2 5-3.2 8.8-5.7 11.3 6.5-1.7 12-5.8 15.2-11.4h-9.5M12.8 12C14 7 16 3.3 18.5.8 12 2.4 6.5 6.5 3.3 12h9.5m21.8 2h-9v9.5h10c0-3.3-.4-6.5-1-9.4M2.3 14C1 17 0 20.3 0 23.6h11.4c0-3.4.3-6.5 1-9.4h-10m23 23v12c3.8-.8 7-5.4 8.7-12h-8.4z"/></symbol>
<symbol id="book" viewBox="0 0 512 512"><path d="M422 99.8v248c-57.8 4.5-106.7 14.5-146 30V178c10.2-6.4 21.4-11.8 33.3-16.3V119c-19.8 6.5-37.8 14.4-53.3 24-50.4-31.4-127.3-44-206-46.4V386c67.6 2 133.8 11.6 183 34 14.6 6.8 31.4 6.8 46 .2 49-22.6 115.3-32.2 183-34.2V94.5c-12.8.2-28.6 2.3-40 5.2zm-186 278c-39.3-15.5-88.2-25.5-146-30V139c47.5 4 105.5 13.7 146 39v200zM335.2 125v106l29.8-36.6 29.8 25.7V112c0-14.2 6.3-21.5 16.8-25-22 3-46.3 8.8-59 12.8-9 3-17.4 11.5-17.4 25.3z"/></symbol>
<symbol id="language" viewBox="0 0 16 16"><path d="M6.5 3.5C3 3.5 0 5.7 0 8.5 0 9.8.7 11 1.8 12c0 1-.2 2-1 2.6 1.4 0 2.7-.8 3.5-1.4.7.2 1.4.3 2.2.3 3.6 0 6.5-2.3 6.5-5 0-2.8-3-5-6.5-5z" /><path fill="currentColor" d="M15 9c.7-.8 1-1.6 1-2.5 0-2.8-3-5-6.5-5-1.6 0-3 .4-4.2 1H7c4 0 7 2.4 7 5.5 0 1.2-.5 2.3-1.3 3.2.8.6 2 1.4 3.4 1.4-.6-1-1-2.8-1-3.6z" /></symbol>

</svg>